<?xml version="1.0" encoding="utf-8"?>
<!-- Generator: Adobe Illustrator 21.1.0, SVG Export Plug-In . SVG Version: 6.00 Build 0)  -->
<svg version="1.1" id="レイヤー_1" xmlns="http://www.w3.org/2000/svg" xmlns:xlink="http://www.w3.org/1999/xlink" x="0px"
	 y="0px" viewBox="0 0 26 20" style="enable-background:new 0 0 26 20;" xml:space="preserve">
<g id="XMLID_226_">
	<g id="XMLID_238_">
		<path id="XMLID_239_" d="M20.1,14.1c0,0.1-0.4,1.3-1.2,2.5c-0.7,1.1-1.5,2.1-2.7,2.2c-1.2,0-1.5-0.7-2.9-0.7
			c-1.3,0-1.8,0.7-2.9,0.7c-1.2,0-2-1.2-2.8-2.2c-1.5-2.2-2.7-6.1-1.1-8.8c0.8-1.3,2.1-2.2,3.6-2.2c1.1,0,2.2,0.8,2.9,0.8
			c0.7,0,2-0.9,3.3-0.8c0.6,0,2.2,0.2,3.2,1.7c-0.1,0.1-1.9,1.1-1.9,3.3C17.8,13.2,20.1,14.1,20.1,14.1z M15.6,4
			c0.6-0.7,1-1.8,0.9-2.8c-0.9,0-1.9,0.6-2.6,1.3c-0.6,0.7-1.1,1.7-0.9,2.7C14,5.4,15,4.8,15.6,4z"/>
	</g>
</g>
</svg>
