<?xml version="1.0" encoding="utf-8"?>
<!-- Generator: Adobe Illustrator 21.1.0, SVG Export Plug-In . SVG Version: 6.00 Build 0)  -->
<svg version="1.1" id="レイヤー_1" xmlns="http://www.w3.org/2000/svg" xmlns:xlink="http://www.w3.org/1999/xlink" x="0px"
	 y="0px" viewBox="0 0 26 20" style="enable-background:new 0 0 26 20;" xml:space="preserve">
<style type="text/css">
	.st0{fill:#379AD6;}
	.st1{fill:#FFFFFF;}
</style>
<g>
	<path id="XMLID_3_" class="st0" d="M19.5,19h-13C5.1,19,4,17.9,4,16.5v-13C4,2.1,5.1,1,6.5,1h13C20.9,1,22,2.1,22,3.5v13
		C22,17.9,20.9,19,19.5,19z"/>
	<g id="XMLID_1_">
		<path class="st1" d="M10.5,8.6C10.2,8.3,10,8.2,9.7,8.1C9.4,8,9.1,7.9,8.8,7.9c-0.6,0-1.1,0.2-1.5,0.6S6.7,9.4,6.7,10
			c0,0.6,0.2,1.1,0.5,1.5C7.6,11.9,8.1,12,8.7,12c0.3,0,0.7-0.1,1-0.2c0.3-0.1,0.6-0.3,0.8-0.5l0,1.3c-0.3,0.2-0.6,0.3-0.9,0.4
			c-0.3,0.1-0.6,0.1-0.9,0.1c-0.9,0-1.7-0.3-2.3-0.9c-0.6-0.6-0.9-1.3-0.9-2.2c0-0.9,0.3-1.7,0.9-2.2c0.6-0.6,1.4-0.9,2.4-0.9
			c0.3,0,0.6,0,0.9,0.1s0.6,0.2,0.9,0.3L10.5,8.6z"/>
		<path class="st1" d="M11.6,12.2l0.7-0.8c0.1,0.2,0.2,0.4,0.4,0.5s0.4,0.2,0.7,0.2c0.3,0,0.5-0.1,0.7-0.2c0.2-0.1,0.3-0.3,0.3-0.6
			c0-0.3-0.3-0.6-0.9-0.8c-0.2-0.1-0.3-0.2-0.4-0.2C12.6,10,12.2,9.7,12,9.5c-0.2-0.3-0.3-0.6-0.3-0.9c0-0.5,0.2-0.9,0.6-1.2
			c0.4-0.3,0.9-0.5,1.5-0.5c0.4,0,0.7,0.1,0.9,0.2s0.5,0.3,0.7,0.6l-0.8,0.7c-0.1-0.2-0.2-0.3-0.4-0.4c-0.1-0.1-0.3-0.1-0.5-0.1
			c-0.3,0-0.5,0.1-0.6,0.2c-0.2,0.1-0.2,0.3-0.2,0.5c0,0.3,0.3,0.6,0.9,0.9c0.1,0.1,0.2,0.1,0.3,0.1c0.5,0.2,0.9,0.5,1.1,0.8
			c0.2,0.3,0.4,0.6,0.4,1c0,0.6-0.2,1-0.6,1.3c-0.4,0.3-0.9,0.5-1.5,0.5c-0.5,0-0.8-0.1-1.2-0.2C12,12.7,11.8,12.5,11.6,12.2z"/>
		<path class="st1" d="M16.6,12.2l0.7-0.8c0.1,0.2,0.2,0.4,0.4,0.5s0.4,0.2,0.7,0.2c0.3,0,0.5-0.1,0.7-0.2c0.2-0.1,0.3-0.3,0.3-0.6
			c0-0.3-0.3-0.6-0.9-0.8c-0.2-0.1-0.3-0.2-0.4-0.2C17.5,10,17.2,9.7,17,9.5c-0.2-0.3-0.3-0.6-0.3-0.9c0-0.5,0.2-0.9,0.6-1.2
			c0.4-0.3,0.9-0.5,1.5-0.5c0.4,0,0.7,0.1,0.9,0.2c0.3,0.1,0.5,0.3,0.7,0.6l-0.8,0.7c-0.1-0.2-0.2-0.3-0.4-0.4
			c-0.1-0.1-0.3-0.1-0.5-0.1c-0.3,0-0.5,0.1-0.6,0.2c-0.2,0.1-0.2,0.3-0.2,0.5c0,0.3,0.3,0.6,0.9,0.9c0.1,0.1,0.2,0.1,0.3,0.1
			c0.5,0.2,0.9,0.5,1.1,0.8c0.2,0.3,0.4,0.6,0.4,1c0,0.6-0.2,1-0.6,1.3c-0.4,0.3-0.9,0.5-1.5,0.5c-0.5,0-0.8-0.1-1.2-0.2
			C17,12.7,16.7,12.5,16.6,12.2z"/>
	</g>
</g>
</svg>
